<?xml version="1.0" encoding="UTF-8"?>
<svg width="20" height="20" version="1.1" viewBox="0 0 20 20" xmlns="http://www.w3.org/2000/svg">
 <title>redirectmanager</title>
 <g>
  <path d="m16.415 3.5677-1.3452 1.8026c0.26854 0.45744 0.47562 0.94956 0.60867 1.4599l2.2043 0.335v2.393l-0.88236 0.1341 0.01097 7.4821c-0.035436 0.97952-1.0534 1.8471-2.011 1.8255l-9.5741 0.04271c-1.5692 0.049122-2.4448-0.81914-2.4163-2.4439v-5.2789c1.8575 2.6138 6.9601 2.9821 6.9601 2.9821v2.6979l5.0303-4-5.0303-4v3c-2.497-0.12028-5.0179-1.4125-6.0661-3.4861-0.35047-0.69334 0.86405-3.133 0.86405-3.133l-1.3472-1.8053 1.6991-1.6991 1.7613 1.2995c0.49227-0.24948 0.9712-0.46859 1.5017-0.64254l0.32654-2.1486h2.393l0.33329 2.1931c0.56276 0.17512 1.0219 0.32827 1.5034 0.60668l1.7528-1.3081 1.723 1.6911"/>
  <path d="m7.1601 8.0346 5.5092 0.00621c-0.50232-3.5007-5.3058-3.1856-5.5092-0.00621z" fill="#fff" fill-opacity=".99871"/>
 </g>
</svg>
